<svg width="16" height="17" viewBox="0 0 16 17" fill="none" xmlns="http://www.w3.org/2000/svg">
<path d="M6.39999 2.09998C6.10559 2.09998 5.86665 2.33891 5.86665 2.63331H4.79999C4.72931 2.63231 4.65915 2.64537 4.59356 2.67172C4.52798 2.69807 4.46829 2.7372 4.41796 2.78682C4.36763 2.83645 4.32766 2.89558 4.30038 2.96078C4.27311 3.02599 4.25906 3.09596 4.25906 3.16664C4.25906 3.23732 4.27311 3.3073 4.30038 3.3725C4.32766 3.43771 4.36763 3.49684 4.41796 3.54646C4.46829 3.59608 4.52798 3.63521 4.59356 3.66156C4.65915 3.68792 4.72931 3.70097 4.79999 3.69998H11.2C11.2707 3.70097 11.3408 3.68792 11.4064 3.66156C11.472 3.63521 11.5317 3.59608 11.582 3.54646C11.6323 3.49684 11.6723 3.43771 11.6996 3.3725C11.7269 3.3073 11.7409 3.23732 11.7409 3.16664C11.7409 3.09596 11.7269 3.02599 11.6996 2.96078C11.6723 2.89558 11.6323 2.83645 11.582 2.78682C11.5317 2.7372 11.472 2.69807 11.4064 2.67172C11.3408 2.64537 11.2707 2.63231 11.2 2.63331H10.1333C10.1333 2.33891 9.89439 2.09998 9.59999 2.09998H6.39999ZM3.19999 4.76664C3.12931 4.76564 3.05915 4.7787 2.99356 4.80505C2.92798 4.83141 2.86829 4.87053 2.81796 4.92016C2.76763 4.96978 2.72766 5.02891 2.70038 5.09412C2.67311 5.15932 2.65906 5.2293 2.65906 5.29998C2.65906 5.37066 2.67311 5.44063 2.70038 5.50583C2.72766 5.57104 2.76763 5.63017 2.81796 5.67979C2.86829 5.72942 2.92798 5.76854 2.99356 5.7949C3.05915 5.82125 3.12931 5.83431 3.19999 5.83331V11.7C2.90559 11.7 2.66665 11.9389 2.66665 12.2333V14.9H3.19999H4.26665H6.39999V12.7666H9.59999V14.9H11.7333H12.8H13.3333V12.2333C13.3333 11.9389 13.0944 11.7 12.8 11.7V5.83331C12.8707 5.83431 12.9408 5.82125 13.0064 5.7949C13.072 5.76854 13.1317 5.72942 13.182 5.67979C13.2323 5.63017 13.2723 5.57104 13.2996 5.50583C13.3269 5.44063 13.3409 5.37066 13.3409 5.29998C13.3409 5.2293 13.3269 5.15932 13.2996 5.09412C13.2723 5.02891 13.2323 4.96978 13.182 4.92016C13.1317 4.87053 13.072 4.83141 13.0064 4.80505C12.9408 4.7787 12.8707 4.76564 12.8 4.76664H3.19999ZM4.26665 6.36664H5.33332V7.43331H4.26665V6.36664ZM6.39999 6.36664H7.46665V7.43331H6.39999V6.36664ZM8.53332 6.36664H9.59999V7.43331H8.53332V6.36664ZM10.6667 6.36664H11.7333V7.43331H10.6667V6.36664ZM4.26665 8.49998H5.33332V9.56664H4.26665V8.49998ZM6.39999 8.49998H7.46665V9.56664H6.39999V8.49998ZM8.53332 8.49998H9.59999V9.56664H8.53332V8.49998ZM10.6667 8.49998H11.7333V9.56664H10.6667V8.49998ZM4.26665 10.6333H5.33332V11.7H4.26665V10.6333ZM6.39999 10.6333H7.46665V11.7H6.39999V10.6333ZM8.53332 10.6333H9.59999V11.7H8.53332V10.6333ZM10.6667 10.6333H11.7333V11.7H10.6667V10.6333ZM4.26665 12.7666H5.33332V13.8333H4.26665V12.7666ZM10.6667 12.7666H11.7333V13.8333H10.6667V12.7666Z" fill="#252525" fill-opacity="0.6"/>
</svg>
