<?xml version="1.0" encoding="utf-8"?>
<!-- Generator: Adobe Illustrator 22.1.0, SVG Export Plug-In . SVG Version: 6.00 Build 0)  -->
<svg version="1.1" id="レイヤー_1" xmlns="http://www.w3.org/2000/svg" xmlns:xlink="http://www.w3.org/1999/xlink" x="0px"
	 y="0px" viewBox="0 0 73.1 33.5" style="enable-background:new 0 0 73.1 33.5;" xml:space="preserve">
<style type="text/css">
	.st0{opacity:0.51;}
	.st1{fill:#686D70;}
	.st2{fill:#D61518;}
	.st3{fill:url(#SVGID_1_);}
	.st4{fill:url(#SVGID_2_);}
	.st5{fill:url(#SVGID_3_);}
	.st6{fill:url(#SVGID_4_);}
	.st7{fill:url(#SVGID_5_);}
	.st8{fill:url(#SVGID_6_);}
	.st9{fill:url(#SVGID_7_);}
	.st10{fill:url(#SVGID_8_);}
	.st11{fill:url(#SVGID_9_);}
	.st12{fill:url(#SVGID_10_);}
	.st13{fill:url(#SVGID_11_);}
	.st14{fill:url(#SVGID_12_);}
	.st15{fill:url(#SVGID_13_);}
	.st16{fill:url(#SVGID_14_);}
	.st17{fill:url(#SVGID_15_);}
	.st18{fill:url(#SVGID_16_);}
	.st19{fill:url(#SVGID_17_);}
</style>
<title>bord6</title>
<g>
	<g class="st0">
	</g>
	<g>
		<path class="st1" d="M54.2,32.8h-5.8v-1.7h5.8c0.7,0,1.6-0.1,2.2-0.6c0.4-0.4,0.7-0.9,0.6-1.6v-6.3h2.1V29c0,1.1-0.4,2.1-1.2,2.7
			C57,32.4,55.7,32.8,54.2,32.8z"/>
		<path class="st1" d="M73.1,32.8H71v-6.3c0-0.7-0.2-1.2-0.6-1.6c-0.6-0.5-1.5-0.6-2.2-0.6h-4.7v8.5h-2.1V22.7h6.9
			c1.5,0,2.8,0.4,3.7,1.1c0.9,0.7,1.3,1.6,1.2,2.8L73.1,32.8L73.1,32.8z"/>
		<path class="st1" d="M46.9,32.8H40c-1.5,0-2.8-0.4-3.7-1.1c-0.9-0.7-1.3-1.6-1.2-2.8v-6.2h2.1V29c0,0.7,0.2,1.2,0.6,1.6
			c0.6,0.5,1.5,0.6,2.2,0.6h4.7v-8.4h2.1V32.8z"/>
		<path class="st1" d="M32.4,23.6c-0.8-0.6-1.9-1-3.3-1H16.7v10.1h2.1v-8.5h5.2v8.5h2.1v-8.5h2.9c0.5,0,1.3,0.1,1.7,0.5
			c0.3,0.3,0.5,0.7,0.5,1.3v6.8h2.1v-6.7C33.5,25.1,33.2,24.2,32.4,23.6z"/>
		<path class="st2" d="M61.1,20.3c0,0.6-0.4,1.2-1,1.2c-0.5,0-1-0.5-1-1.2c0-0.6,0.4-1.2,1-1.2C60.7,19.1,61.1,19.7,61.1,20.3z"/>
		
			<linearGradient id="SVGID_1_" gradientUnits="userSpaceOnUse" x1="-1074.8533" y1="354.6749" x2="-1045.6864" y2="354.6749" gradientTransform="matrix(1 0 0 -1 1075 368.2795)">
			<stop  offset="0" style="stop-color:#EBA415"/>
			<stop  offset="4.750000e-02" style="stop-color:#EA9913"/>
			<stop  offset="0.1992" style="stop-color:#E27911"/>
			<stop  offset="0.3541" style="stop-color:#DD5D0F"/>
			<stop  offset="0.5104" style="stop-color:#DA4414"/>
			<stop  offset="0.6687" style="stop-color:#D72E17"/>
			<stop  offset="0.8303" style="stop-color:#D61B18"/>
			<stop  offset="1" style="stop-color:#D61518"/>
		</linearGradient>
		<path class="st3" d="M21.7,13.1c0-0.2-0.1-0.3-0.2-0.2l-0.7,0.4c-0.1,0.1-0.3,0.3-0.3,0.4l-0.1,0.4c0,0.2,0.1,0.3,0.2,0.2l0.6-0.3
			c0.1-0.1,0.3-0.2,0.3-0.4L21.7,13.1z"/>
		
			<linearGradient id="SVGID_2_" gradientUnits="userSpaceOnUse" x1="-1074.8523" y1="356.1821" x2="-1045.6866" y2="356.1821" gradientTransform="matrix(1 0 0 -1 1075 368.2795)">
			<stop  offset="0" style="stop-color:#EBA415"/>
			<stop  offset="4.750000e-02" style="stop-color:#EA9913"/>
			<stop  offset="0.1992" style="stop-color:#E27911"/>
			<stop  offset="0.3541" style="stop-color:#DD5D0F"/>
			<stop  offset="0.5104" style="stop-color:#DA4414"/>
			<stop  offset="0.6687" style="stop-color:#D72E17"/>
			<stop  offset="0.8303" style="stop-color:#D61B18"/>
			<stop  offset="1" style="stop-color:#D61518"/>
		</linearGradient>
		<path class="st4" d="M24.9,12c0,0.2-0.1,0.4-0.3,0.4l-0.7,0.3c-0.1,0.1-0.3,0.3-0.3,0.4l-0.1,0.6c0,0.2,0.1,0.3,0.2,0.2l1-0.4
			c0.1,0,0.3-0.2,0.3-0.4l0.1-0.5c0-0.2,0.2-0.4,0.3-0.4l0.9-0.4c0.1-0.1,0.3-0.2,0.3-0.4l0.2-1.2c0-0.2-0.1-0.3-0.2-0.2l-1.2,0.7
			c-0.1,0.1-0.3,0.3-0.3,0.4L24.9,12z"/>
		
			<linearGradient id="SVGID_3_" gradientUnits="userSpaceOnUse" x1="-1074.8529" y1="366.1636" x2="-1045.6865" y2="366.1636" gradientTransform="matrix(1 0 0 -1 1075 368.2795)">
			<stop  offset="0" style="stop-color:#EBA415"/>
			<stop  offset="4.750000e-02" style="stop-color:#EA9913"/>
			<stop  offset="0.1992" style="stop-color:#E27911"/>
			<stop  offset="0.3541" style="stop-color:#DD5D0F"/>
			<stop  offset="0.5104" style="stop-color:#DA4414"/>
			<stop  offset="0.6687" style="stop-color:#D72E17"/>
			<stop  offset="0.8303" style="stop-color:#D61B18"/>
			<stop  offset="1" style="stop-color:#D61518"/>
		</linearGradient>
		<path class="st5" d="M27.8,1.7c-0.1,0.1-0.2,0.4-0.2,0.5L27.4,4c0,0.2,0.1,0.2,0.2,0.1l1.3-1.1C29,3,29.1,2.8,29.1,2.6l0.3-2.5
			c0-0.2,0-0.2-0.2-0.1L27.8,1.7z"/>
		
			<linearGradient id="SVGID_4_" gradientUnits="userSpaceOnUse" x1="-1074.8546" y1="361.8595" x2="-1045.686" y2="361.8595" gradientTransform="matrix(1 0 0 -1 1075 368.2795)">
			<stop  offset="0" style="stop-color:#EBA415"/>
			<stop  offset="4.750000e-02" style="stop-color:#EA9913"/>
			<stop  offset="0.1992" style="stop-color:#E27911"/>
			<stop  offset="0.3541" style="stop-color:#DD5D0F"/>
			<stop  offset="0.5104" style="stop-color:#DA4414"/>
			<stop  offset="0.6687" style="stop-color:#D72E17"/>
			<stop  offset="0.8303" style="stop-color:#D61B18"/>
			<stop  offset="1" style="stop-color:#D61518"/>
		</linearGradient>
		<path class="st6" d="M25.5,5c0-0.2,0-0.2-0.2-0.1l-1.1,1.3c-0.1,0.1-0.2,0.4-0.2,0.5l-0.1,1.1C23.8,8,23.9,8,24,7.9l1-0.9
			c0.1-0.1,0.2-0.3,0.3-0.5L25.5,5z"/>
		
			<linearGradient id="SVGID_5_" gradientUnits="userSpaceOnUse" x1="-1074.8535" y1="358.0524" x2="-1045.686" y2="358.0524" gradientTransform="matrix(1 0 0 -1 1075 368.2795)">
			<stop  offset="0" style="stop-color:#EBA415"/>
			<stop  offset="4.750000e-02" style="stop-color:#EA9913"/>
			<stop  offset="0.1992" style="stop-color:#E27911"/>
			<stop  offset="0.3541" style="stop-color:#DD5D0F"/>
			<stop  offset="0.5104" style="stop-color:#DA4414"/>
			<stop  offset="0.6687" style="stop-color:#D72E17"/>
			<stop  offset="0.8303" style="stop-color:#D61B18"/>
			<stop  offset="1" style="stop-color:#D61518"/>
		</linearGradient>
		<path class="st7" d="M21.3,10c0.2-0.1,0.2-0.2,0.3-0.5l0-0.3c0-0.1,0-0.2,0.1-0.3l0.4-0.4c0.3-0.2,0.3-0.5,0.4-0.9l0.2-1.3
			c0-0.2,0-0.2-0.1-0.1l-1.1,1.4c-0.2,0.2-0.2,0.3-0.2,0.5l0,0.5c0,0.2,0,0.2-0.2,0.4l-4.7,5.3c-0.1,0.1-0.1,0.1,0,0L21.3,10z"/>
		
			<linearGradient id="SVGID_6_" gradientUnits="userSpaceOnUse" x1="-1074.8541" y1="353.441" x2="-1045.6859" y2="353.441" gradientTransform="matrix(1 0 0 -1 1075 368.2795)">
			<stop  offset="0" style="stop-color:#EBA415"/>
			<stop  offset="4.750000e-02" style="stop-color:#EA9913"/>
			<stop  offset="0.1992" style="stop-color:#E27911"/>
			<stop  offset="0.3541" style="stop-color:#DD5D0F"/>
			<stop  offset="0.5104" style="stop-color:#DA4414"/>
			<stop  offset="0.6687" style="stop-color:#D72E17"/>
			<stop  offset="0.8303" style="stop-color:#D61B18"/>
			<stop  offset="1" style="stop-color:#D61518"/>
		</linearGradient>
		<path class="st8" d="M21.2,15.3c0,0.2,0.1,0.3,0.2,0.2l0.7-0.2c0.1,0,0.3-0.2,0.3-0.4l0.1-0.5c0-0.2-0.1-0.3-0.2-0.2l-0.7,0.3
			c-0.1,0.1-0.3,0.2-0.3,0.4L21.2,15.3z"/>
		
			<linearGradient id="SVGID_7_" gradientUnits="userSpaceOnUse" x1="-1074.8542" y1="357.9331" x2="-1045.686" y2="357.9331" gradientTransform="matrix(1 0 0 -1 1075 368.2795)">
			<stop  offset="0" style="stop-color:#EBA415"/>
			<stop  offset="4.750000e-02" style="stop-color:#EA9913"/>
			<stop  offset="0.1992" style="stop-color:#E27911"/>
			<stop  offset="0.3541" style="stop-color:#DD5D0F"/>
			<stop  offset="0.5104" style="stop-color:#DA4414"/>
			<stop  offset="0.6687" style="stop-color:#D72E17"/>
			<stop  offset="0.8303" style="stop-color:#D61B18"/>
			<stop  offset="1" style="stop-color:#D61518"/>
		</linearGradient>
		<path class="st9" d="M24.4,9.4c0-0.2-0.1-0.2-0.2-0.1L23.3,10c-0.1,0.1-0.2,0.3-0.3,0.5l-0.1,0.8c0,0.2,0.1,0.2,0.2,0.2l0.9-0.5
			c0.1-0.1,0.3-0.3,0.3-0.5L24.4,9.4z"/>
		
			<linearGradient id="SVGID_8_" gradientUnits="userSpaceOnUse" x1="-1074.8558" y1="358.314" x2="-1045.6855" y2="358.314" gradientTransform="matrix(1 0 0 -1 1075 368.2795)">
			<stop  offset="0" style="stop-color:#EBA415"/>
			<stop  offset="4.750000e-02" style="stop-color:#EA9913"/>
			<stop  offset="0.1992" style="stop-color:#E27911"/>
			<stop  offset="0.3541" style="stop-color:#DD5D0F"/>
			<stop  offset="0.5104" style="stop-color:#DA4414"/>
			<stop  offset="0.6687" style="stop-color:#D72E17"/>
			<stop  offset="0.8303" style="stop-color:#D61B18"/>
			<stop  offset="1" style="stop-color:#D61518"/>
		</linearGradient>
		<path class="st10" d="M21.5,10.8c0,0.2,0.1,0.2,0.2,0.2l0.8-0.6c0.1-0.1,0.2-0.3,0.3-0.5l0.1-0.8c0-0.2-0.1-0.2-0.2-0.1l-0.8,0.7
			c-0.1,0.1-0.2,0.3-0.3,0.5L21.5,10.8z"/>
		
			<linearGradient id="SVGID_9_" gradientUnits="userSpaceOnUse" x1="-1074.8531" y1="357.3574" x2="-1045.6863" y2="357.3574" gradientTransform="matrix(1 0 0 -1 1075 368.2795)">
			<stop  offset="0" style="stop-color:#EBA415"/>
			<stop  offset="4.750000e-02" style="stop-color:#EA9913"/>
			<stop  offset="0.1992" style="stop-color:#E27911"/>
			<stop  offset="0.3541" style="stop-color:#DD5D0F"/>
			<stop  offset="0.5104" style="stop-color:#DA4414"/>
			<stop  offset="0.6687" style="stop-color:#D72E17"/>
			<stop  offset="0.8303" style="stop-color:#D61B18"/>
			<stop  offset="1" style="stop-color:#D61518"/>
		</linearGradient>
		<path class="st11" d="M0.2,5.7C0.1,5.7,0,5.7,0,5.8v2.3c0,0.1,0.1,0.3,0.2,0.3L14,16.1c0.1,0.1,0.1,0,0,0L0.2,5.7z"/>
		
			<linearGradient id="SVGID_10_" gradientUnits="userSpaceOnUse" x1="-1074.8531" y1="352.5029" x2="-1045.6863" y2="352.5029" gradientTransform="matrix(1 0 0 -1 1075 368.2795)">
			<stop  offset="0" style="stop-color:#EBA415"/>
			<stop  offset="4.750000e-02" style="stop-color:#EA9913"/>
			<stop  offset="0.1992" style="stop-color:#E27911"/>
			<stop  offset="0.3541" style="stop-color:#DD5D0F"/>
			<stop  offset="0.5104" style="stop-color:#DA4414"/>
			<stop  offset="0.6687" style="stop-color:#D72E17"/>
			<stop  offset="0.8303" style="stop-color:#D61B18"/>
			<stop  offset="1" style="stop-color:#D61518"/>
		</linearGradient>
		<path class="st12" d="M0,16.5c0,0.1,0.1,0.2,0.2,0.2l9.5,0.4c0.1,0,0.2-0.1,0.2-0.2v-0.3c0-0.1-0.1-0.3-0.2-0.3l-9.5-2
			c-0.1,0-0.2,0.1-0.2,0.2V16.5z"/>
		
			<linearGradient id="SVGID_11_" gradientUnits="userSpaceOnUse" x1="-1074.8531" y1="360.7851" x2="-1045.6864" y2="360.7851" gradientTransform="matrix(1 0 0 -1 1075 368.2795)">
			<stop  offset="0" style="stop-color:#EBA415"/>
			<stop  offset="4.750000e-02" style="stop-color:#EA9913"/>
			<stop  offset="0.1992" style="stop-color:#E27911"/>
			<stop  offset="0.3541" style="stop-color:#DD5D0F"/>
			<stop  offset="0.5104" style="stop-color:#DA4414"/>
			<stop  offset="0.6687" style="stop-color:#D72E17"/>
			<stop  offset="0.8303" style="stop-color:#D61B18"/>
			<stop  offset="1" style="stop-color:#D61518"/>
		</linearGradient>
		<path class="st13" d="M0.2,0.7C0.1,0.6,0,0.7,0,0.8v2.7c0,0.1,0.1,0.3,0.2,0.4l12.4,10.4c0.1,0.1,0.1,0.1,0,0L0.2,0.7z"/>
		
			<linearGradient id="SVGID_12_" gradientUnits="userSpaceOnUse" x1="-1074.8531" y1="340.2412" x2="-1045.6863" y2="340.2412" gradientTransform="matrix(1 0 0 -1 1075 368.2795)">
			<stop  offset="0" style="stop-color:#EBA415"/>
			<stop  offset="4.750000e-02" style="stop-color:#EA9913"/>
			<stop  offset="0.1992" style="stop-color:#E27911"/>
			<stop  offset="0.3541" style="stop-color:#DD5D0F"/>
			<stop  offset="0.5104" style="stop-color:#DA4414"/>
			<stop  offset="0.6687" style="stop-color:#D72E17"/>
			<stop  offset="0.8303" style="stop-color:#D61B18"/>
			<stop  offset="1" style="stop-color:#D61518"/>
		</linearGradient>
		<path class="st14" d="M0,33.4c0,0.1,0.1,0.2,0.2,0.1l9.6-9.9c0.1-0.1,0.2-0.3,0.2-0.4v-0.4c0-0.1-0.1-0.2-0.2-0.1l-9.6,8
			C0.1,30.7,0,30.9,0,31V33.4z"/>
		
			<linearGradient id="SVGID_13_" gradientUnits="userSpaceOnUse" x1="-1074.8531" y1="343.2758" x2="-1045.6868" y2="343.2758" gradientTransform="matrix(1 0 0 -1 1075 368.2795)">
			<stop  offset="0" style="stop-color:#EBA415"/>
			<stop  offset="4.750000e-02" style="stop-color:#EA9913"/>
			<stop  offset="0.1992" style="stop-color:#E27911"/>
			<stop  offset="0.3541" style="stop-color:#DD5D0F"/>
			<stop  offset="0.5104" style="stop-color:#DA4414"/>
			<stop  offset="0.6687" style="stop-color:#D72E17"/>
			<stop  offset="0.8303" style="stop-color:#D61B18"/>
			<stop  offset="1" style="stop-color:#D61518"/>
		</linearGradient>
		<path class="st15" d="M0,28.8c0,0.1,0.1,0.2,0.2,0.1L9.8,22c0.1-0.1,0.2-0.2,0.2-0.4v-0.4c0-0.1-0.1-0.2-0.2-0.1l-9.6,5.2
			C0.1,26.4,0,26.5,0,26.7V28.8z"/>
		
			<linearGradient id="SVGID_14_" gradientUnits="userSpaceOnUse" x1="-1074.8531" y1="348.9324" x2="-1045.6863" y2="348.9324" gradientTransform="matrix(1 0 0 -1 1075 368.2795)">
			<stop  offset="0" style="stop-color:#EBA415"/>
			<stop  offset="4.750000e-02" style="stop-color:#EA9913"/>
			<stop  offset="0.1992" style="stop-color:#E27911"/>
			<stop  offset="0.3541" style="stop-color:#DD5D0F"/>
			<stop  offset="0.5104" style="stop-color:#DA4414"/>
			<stop  offset="0.6687" style="stop-color:#D72E17"/>
			<stop  offset="0.8303" style="stop-color:#D61B18"/>
			<stop  offset="1" style="stop-color:#D61518"/>
		</linearGradient>
		<path class="st16" d="M0,20.5c0,0.1,0.1,0.2,0.2,0.2l9.5-1.9c0.1,0,0.2-0.1,0.2-0.3v-0.3c0-0.1-0.1-0.2-0.2-0.2l-9.5,0.4
			c-0.1,0-0.2,0.1-0.2,0.2V20.5z"/>
		
			<linearGradient id="SVGID_15_" gradientUnits="userSpaceOnUse" x1="-1074.8531" y1="346.1442" x2="-1045.6868" y2="346.1442" gradientTransform="matrix(1 0 0 -1 1075 368.2795)">
			<stop  offset="0" style="stop-color:#EBA415"/>
			<stop  offset="4.750000e-02" style="stop-color:#EA9913"/>
			<stop  offset="0.1992" style="stop-color:#E27911"/>
			<stop  offset="0.3541" style="stop-color:#DD5D0F"/>
			<stop  offset="0.5104" style="stop-color:#DA4414"/>
			<stop  offset="0.6687" style="stop-color:#D72E17"/>
			<stop  offset="0.8303" style="stop-color:#D61B18"/>
			<stop  offset="1" style="stop-color:#D61518"/>
		</linearGradient>
		<path class="st17" d="M0,24.6c0,0.1,0.1,0.2,0.2,0.1l9.5-4.3C9.9,20.3,10,20.2,10,20v-0.3c0-0.1-0.1-0.2-0.2-0.2l-9.5,2.7
			c-0.1,0-0.2,0.2-0.2,0.3V24.6z"/>
		
			<linearGradient id="SVGID_16_" gradientUnits="userSpaceOnUse" x1="-1074.853" y1="354.6926" x2="-1045.6866" y2="354.6926" gradientTransform="matrix(1 0 0 -1 1075 368.2795)">
			<stop  offset="0" style="stop-color:#EBA415"/>
			<stop  offset="4.750000e-02" style="stop-color:#EA9913"/>
			<stop  offset="0.1992" style="stop-color:#E27911"/>
			<stop  offset="0.3541" style="stop-color:#DD5D0F"/>
			<stop  offset="0.5104" style="stop-color:#DA4414"/>
			<stop  offset="0.6687" style="stop-color:#D72E17"/>
			<stop  offset="0.8303" style="stop-color:#D61B18"/>
			<stop  offset="1" style="stop-color:#D61518"/>
		</linearGradient>
		<path class="st18" d="M14.6,16.8c-0.1,0.1-0.3,0.1-0.4,0l-14-6.6c-0.1-0.1-0.2,0-0.2,0.1v2.1c0,0.1,0.1,0.3,0.2,0.3l14,4.2
			c0.1,0,0.3,0,0.4,0l3-0.9c0.1,0,0.3-0.1,0.4-0.1l1.1-0.3c0.1,0,0.3-0.2,0.3-0.3l0.3-0.8c0-0.1,0-0.2-0.1-0.1c0,0-0.9,0.4-1.4,0.6
			C16.2,16,14.6,16.8,14.6,16.8z"/>
		
			<linearGradient id="SVGID_17_" gradientUnits="userSpaceOnUse" x1="-1074.8527" y1="354.6518" x2="-1045.6865" y2="354.6518" gradientTransform="matrix(1 0 0 -1 1075 368.2795)">
			<stop  offset="0" style="stop-color:#EBA415"/>
			<stop  offset="4.750000e-02" style="stop-color:#EA9913"/>
			<stop  offset="0.1992" style="stop-color:#E27911"/>
			<stop  offset="0.3541" style="stop-color:#DD5D0F"/>
			<stop  offset="0.5104" style="stop-color:#DA4414"/>
			<stop  offset="0.6687" style="stop-color:#D72E17"/>
			<stop  offset="0.8303" style="stop-color:#D61B18"/>
			<stop  offset="1" style="stop-color:#D61518"/>
		</linearGradient>
		<path class="st19" d="M21.4,11.2c0-0.1,0-0.1-0.1-0.1c0,0-0.8,0.6-1.2,0.9c-0.4,0.3-0.9,0.6-1.3,1c-2,1.5-4,3.1-4,3.1
			c-0.1,0.1-0.1,0.1,0,0l3.3-1.8c0.1-0.1,0.3-0.1,0.4-0.2l1-0.5c0.1-0.1,0.3-0.1,0.4-0.2l1.1-0.6c0.1-0.1,0.2-0.2,0.2-0.3L21.4,11.2
			z"/>
	</g>
</g>
</svg>
