<svg width="32" height="32" xmlns="http://www.w3.org/2000/svg">
    <path d="M10.644 3A14.098 14.098 0 0 0 3 10.646l2.26.932a11.66 11.66 0 0 1 6.315-6.317L10.645 3zm5.36 3.225c-5.386 0-9.779 4.393-9.779 9.779s4.393 9.778 9.779 9.778 9.778-4.392 9.778-9.778-4.392-9.779-9.778-9.779zm0 2.445a7.315 7.315 0 0 1 7.333 7.334 7.315 7.315 0 0 1-7.333 7.333 7.315 7.315 0 0 1-7.334-7.333 7.315 7.315 0 0 1 7.334-7.334zm-1.223 2.475v5.3l2.715 3.256 1.878-1.563-2.148-2.576v-4.417H14.78zm11.958 9.282a11.665 11.665 0 0 1-6.314 6.32l.93 2.258A14.094 14.094 0 0 0 29 21.36l-2.26-.934z" fill="#1071FF" fill-rule="nonzero"/>
</svg>
