<svg width="32" height="32" xmlns="http://www.w3.org/2000/svg">
    <path d="M26.287 5.013a2.69 2.69 0 0 0-1.268.192c-.54.212-9.004 3.773-16.893 7.094l-2.607 1.097C4.51 13.806 4 14.471 4 15.368c0 .627.266 1.479 1.533 1.98l4.4 1.763c.38 1.142 1.265 3.792 1.487 4.497.132.417.465 1.47 1.308 1.716.173.059.353.089.537.089.531 0 .914-.248 1.101-.392l2.797-2.365 3.397 3.141c.13.134.823.807 1.754.807 1.16 0 2.04-.966 2.224-1.901.1-.513 3.376-16.96 3.376-16.957.294-1.319-.235-2.003-.574-2.295a1.909 1.909 0 0 0-1.053-.438zm-.794 2.593c-.453 2.268-2.92 14.65-3.294 16.435l-4.965-4.592-3.37 2.853.934-3.65s6.436-6.515 6.824-6.895c.312-.303.378-.41.378-.515 0-.14-.073-.242-.24-.242-.15 0-.353.144-.461.211-1.373.856-7.216 4.185-10.093 5.821l-4.172-1.667 2.025-.85c5.16-2.173 14.35-6.043 16.434-6.91z" fill="#1071FF" fill-rule="nonzero"/>
</svg>
