<svg width="32" height="32" xmlns="http://www.w3.org/2000/svg">
    <path d="M14.412 5C11.87 5 9.784 7.085 9.784 9.627s2.086 4.628 4.628 4.628c2.542 0 4.627-2.086 4.627-4.628C19.039 7.085 16.954 5 14.412 5zm0 2.314a2.296 2.296 0 0 1 2.313 2.313 2.296 2.296 0 0 1-2.313 2.314 2.296 2.296 0 0 1-2.314-2.314 2.296 2.296 0 0 1 2.314-2.313zm0 10.411C10.778 17.725 4 19.513 4 22.931v2.892h12.94l-1.408-1.218-1.267-1.095H6.314v-.579c0-1.005 4.29-2.892 8.098-2.892 1.626 0 3.34.346 4.77.818l.9-2.142c-1.943-.655-4.1-.99-5.67-.99zm8.111 1.157-1.536 3.636-3.94.336 2.986 2.587-.897 3.85 3.387-2.04 3.387 2.043-.897-3.862L28 22.847l-3.938-.336-1.539-3.629z" fill="#1071FF" fill-rule="nonzero"/>
</svg>
