<svg width="32" height="32" viewBox="0 0 32 32" fill="none" xmlns="http://www.w3.org/2000/svg">
<path d="M12.7578 1.82544L12.151 3.20304L11.2109 5.32804L7.3984 5.6744L8.20308 9.41658L5.32288 11.9374L8.17444 14.4921L7.32548 18.2265L9.33329 18.4322V30.6015L16 27.2681L22.6666 30.6015V18.4999L24.6015 18.3254L23.7968 14.5833L26.677 12.0624L23.8255 9.50773L24.6744 5.77336L20.8645 5.38273L19.3567 1.8645L16.0468 3.78638L12.7578 1.82544ZM13.9791 5.65877L16.0286 6.88013L18.0937 5.68221L19.0338 7.87492L21.4088 8.11971L20.8776 10.4452L22.6536 12.039L20.8593 13.6093L21.3619 15.9426L18.9843 16.1588L18.0208 18.3411L15.9713 17.1197L13.9062 18.3176L12.9661 16.1249L10.5911 15.8801L11.1224 13.5546L9.34631 11.9609L11.1406 10.3905L10.638 8.05721L13.0156 7.84106L13.9791 5.65877ZM15.9531 20.2135L19.2421 22.1744L20 20.4583V26.2864L16 24.2864L12 26.2864V20.6353L12.6432 22.1353L15.9531 20.2135Z" fill="#1071FF"/>
</svg>
