<svg width="32" height="32" xmlns="http://www.w3.org/2000/svg">
    <path d="M8.8 5v4.19l-3.61 2.105A2.41 2.41 0 0 0 4 13.37V25.4c0 1.324 1.076 2.4 2.4 2.4h19.2c1.324 0 2.4-1.076 2.4-2.4V13.37a2.41 2.41 0 0 0-1.19-2.075L23.2 9.191V5H8.8zm2.4 2.4h9.6v8.8L16 19.188l-4.8-2.989V7.4zm2.4 2.4v2.4h4.8V9.8h-4.8zm-4.8 2.168v2.737l-2.271-1.413L8.8 11.968zm14.4.002 2.271 1.325-2.271 1.413V11.97zm-9.6 1.43v2.4h4.8v-2.4h-4.8zm-7.2 2.64 9.6 5.973 9.6-5.974.002 9.361H6.4v-9.36z" fill="#1071FF" fill-rule="nonzero"/>
</svg>
