<svg width="48" height="49" viewBox="0 0 48 49" fill="none" xmlns="http://www.w3.org/2000/svg">
<path d="M24 44.5C35.028 44.5 44 35.528 44 24.5C44 13.472 35.028 4.5 24 4.5C12.972 4.5 4 13.472 4 24.5C4 35.528 12.972 44.5 24 44.5ZM17.439 22.939L25.439 14.939C26.025 14.353 26.974 14.353 27.56 14.939C28.146 15.525 28.146 16.474 27.56 17.06L20.621 24L27.56 30.939C28.146 31.525 28.146 32.474 27.56 33.06C27.268 33.354 26.884 33.5 26.5 33.5C26.116 33.5 25.732 33.354 25.439 33.061L17.439 25.061C16.854 24.475 16.854 23.525 17.439 22.939Z" fill="#252525" fill-opacity="0.1"/>
</svg>
