<svg xmlns="http://www.w3.org/2000/svg" width="16" height="15" viewBox="0 0 16 15"><path fill="#FFF" fill-rule="evenodd" d="M15.09 14.422v-5.58c0-2.988-1.596-4.38-3.725-4.38-1.717 0-2.486.945-2.914 1.608V4.69H5.216c.043.915 0 9.732 0 9.732h3.235V8.987c0-.29.02-.58.106-.788.234-.58.766-1.183 1.66-1.183 1.17 0 1.638.892 1.638 2.2v5.207l3.234-.001zM1.807 3.362c1.127 0 1.83-.747 1.83-1.681C3.618.726 2.935 0 1.83 0 .723 0 0 .725 0 1.68c0 .935.702 1.682 1.788 1.682h.02zm1.617 11.06V4.69H.192v9.73h3.233z"/></svg>