<svg width="16" height="17" viewBox="0 0 16 17" fill="none" xmlns="http://www.w3.org/2000/svg">
<path d="M8.00004 1.8335C5.42271 1.8335 3.33337 3.92283 3.33337 6.50016C3.33337 9.14416 6.26937 13.0468 7.48404 14.5475C7.75071 14.8768 8.24937 14.8768 8.51604 14.5475C9.73071 13.0468 12.6667 9.14416 12.6667 6.50016C12.6667 3.92283 10.5774 1.8335 8.00004 1.8335ZM8.00004 8.16683C7.07937 8.16683 6.33337 7.42083 6.33337 6.50016C6.33337 5.5795 7.07937 4.8335 8.00004 4.8335C8.92071 4.8335 9.66671 5.5795 9.66671 6.50016C9.66671 7.42083 8.92071 8.16683 8.00004 8.16683Z" fill="#252525" fill-opacity="0.6"/>
</svg>
