<svg width="32" height="32" viewBox="0 0 32 32" fill="none" xmlns="http://www.w3.org/2000/svg">
<path d="M16 2.66675C8.63596 2.66675 2.66663 8.63608 2.66663 16.0001C2.66663 23.3641 8.63596 29.3334 16 29.3334C23.364 29.3334 29.3333 23.3641 29.3333 16.0001C29.3333 8.63608 23.364 2.66675 16 2.66675ZM16 5.33341C21.8813 5.33341 26.6666 10.1187 26.6666 16.0001C26.6666 21.8814 21.8813 26.6667 16 26.6667C10.1186 26.6667 5.33329 21.8814 5.33329 16.0001C5.33329 10.1187 10.1186 5.33341 16 5.33341ZM12 10.6667V21.3334H14.6666V10.6667H12ZM17.3333 10.6667V21.3334H20V10.6667H17.3333Z" fill="#1071FF"/>
</svg>
