<svg width="24" height="25" viewBox="0 0 24 25" fill="none" xmlns="http://www.w3.org/2000/svg">
<path d="M10.5 1.5C8.567 1.5 7 3.067 7 5C7 5.6636 7.19485 6.2779 7.51562 6.80664C4.53703 7.56936 2.96657 9.66016 2.33984 11.5605C2.23093 11.5208 2.11593 11.5003 2 11.5C1.73478 11.5 1.48043 11.6054 1.29289 11.7929C1.10536 11.9804 1 12.2348 1 12.5C1 12.7652 1.10536 13.0196 1.29289 13.2071C1.48043 13.3946 1.73478 13.5 2 13.5C2 14.664 2.39122 15.8504 3.07422 16.9434L3.86133 21.6641C3.94133 22.1461 4.35866 22.5 4.84766 22.5H7.15234C7.64134 22.5 8.05867 22.1471 8.13867 21.6641L8.25781 20.9492C9.27081 21.2942 10.36 21.5 11.5 21.5C12.195 21.5 12.8695 21.4429 13.5215 21.3379L13.9277 22.0137C14.1087 22.3157 14.4332 22.5 14.7852 22.5H17C17.631 22.5 18.1035 21.9237 17.9805 21.3047L17.6816 19.8086C18.6836 19.1746 19.5002 18.389 20.0742 17.5H21.2207C21.6797 17.5 22.0785 17.1882 22.1895 16.7422L22.7754 14.3984C22.9014 13.8914 22.6171 13.372 22.1211 13.207L20.6934 12.7305C20.4384 11.9525 20.0094 11.1402 19.3984 10.3652C19.7354 9.27223 20 7.953 20 6.5L14.4258 7.11914C14.114 7.02465 13.7889 6.93844 13.4531 6.86328C13.7948 6.32279 14 5.68674 14 5C14 3.067 12.433 1.5 10.5 1.5ZM10.5 3.5C11.327 3.5 12 4.173 12 5C12 5.827 11.327 6.5 10.5 6.5C9.673 6.5 9 5.827 9 5C9 4.173 9.673 3.5 10.5 3.5ZM10 8.5C11.384 8.5 12.6777 8.6792 13.8457 9.0332L14.2383 9.15234L14.6465 9.10742L17.7539 8.76172C17.6809 9.09872 17.5923 9.43834 17.4883 9.77734L17.1797 10.7793L17.8281 11.6035C18.2661 12.1595 18.6019 12.7645 18.7949 13.3535L19.1074 14.3105L20.0625 14.6289L20.6113 14.8105L20.4375 15.5H20.0723H18.9844L18.3926 16.4141C17.9806 17.0521 17.3653 17.6421 16.6113 18.1191L15.4492 18.8535L15.7188 20.2012L15.7793 20.5H15.3516L15.2363 20.3086L14.541 19.1484L13.2051 19.3613C12.6351 19.4533 12.062 19.5 11.5 19.5C10.639 19.5 9.7663 19.3506 8.9043 19.0566L6.67383 18.2969L6.30664 20.5H5.69336L5.04688 16.6152L4.98047 16.2227L4.76953 15.8848C4.26553 15.0778 4 14.253 4 13.5C4 13.45 4.163 8.5 10 8.5ZM16 12.5C15.448 12.5 15 12.948 15 13.5C15 14.052 15.448 14.5 16 14.5C16.552 14.5 17 14.052 17 13.5C17 12.948 16.552 12.5 16 12.5Z" fill="#34C759"/>
</svg>
