<svg width="48" height="49" viewBox="0 0 48 49" fill="none" xmlns="http://www.w3.org/2000/svg">
<path d="M24 4.5C12.972 4.5 4 13.472 4 24.5C4 35.528 12.972 44.5 24 44.5C35.028 44.5 44 35.528 44 24.5C44 13.472 35.028 4.5 24 4.5ZM30.561 26.061L22.561 34.061C21.975 34.647 21.026 34.647 20.44 34.061C19.854 33.475 19.854 32.526 20.44 31.94L27.379 25L20.44 18.061C19.854 17.475 19.854 16.526 20.44 15.94C20.732 15.646 21.116 15.5 21.5 15.5C21.884 15.5 22.268 15.646 22.561 15.939L30.561 23.939C31.146 24.525 31.146 25.475 30.561 26.061Z" fill="#252525" fill-opacity="0.1"/>
</svg>
