<?xml version="1.0" encoding="UTF-8" standalone="no"?><!-- Generator: Gravit.io --><svg xmlns="http://www.w3.org/2000/svg" xmlns:xlink="http://www.w3.org/1999/xlink" style="isolation:isolate" viewBox="0 0 865.84 156.46" width="865.84pt" height="156.46pt"><defs><clipPath id="_clipPath_rK3SXu38infPNGy0lExUDNTHxrleUev1"><rect width="865.84" height="156.46"/></clipPath></defs><g clip-path="url(#_clipPath_rK3SXu38infPNGy0lExUDNTHxrleUev1)"><g><path d=" M 338.57 100.61 C 341.378 104.039 344.762 106.952 348.57 109.22 C 352.513 111.579 357.036 112.791 361.63 112.72 C 363.754 112.729 365.865 112.391 367.88 111.72 C 369.8 111.105 371.583 110.123 373.13 108.83 C 374.594 107.593 375.806 106.086 376.7 104.39 C 377.623 102.602 378.086 100.612 378.05 98.6 C 378.191 95.376 376.997 92.236 374.75 89.92 C 372.341 87.581 369.568 85.65 366.54 84.2 Q 361.62 81.78 355.97 79.63 C 352.337 78.26 348.863 76.5 345.61 74.38 C 342.241 72.171 339.336 69.324 337.06 66 C 334.674 62.323 333.477 58.001 333.63 53.62 C 333.628 50.294 334.362 47.009 335.78 44 C 337.222 40.957 339.263 38.236 341.78 36 C 344.419 33.662 347.471 31.838 350.78 30.62 C 354.396 29.279 358.224 28.602 362.08 28.62 C 364.864 28.599 367.641 28.891 370.36 29.49 C 372.762 30.026 375.106 30.793 377.36 31.78 C 379.32 32.628 381.209 33.631 383.01 34.78 C 384.538 35.757 386.001 36.833 387.39 38 L 379.45 47.82 C 374.809 43.697 368.828 41.402 362.62 41.36 C 360.684 41.353 358.758 41.626 356.9 42.17 C 355.106 42.683 353.415 43.501 351.9 44.59 C 350.439 45.651 349.224 47.016 348.34 48.59 C 347.453 50.252 347.019 52.117 347.08 54 C 347.021 56.838 348.231 59.555 350.38 61.41 C 352.851 63.56 355.616 65.348 358.59 66.72 Q 363.5 69.07 369.09 71.37 C 372.631 72.799 376.033 74.553 379.25 76.61 C 380.873 77.693 382.402 78.911 383.82 80.25 C 385.298 81.641 386.61 83.198 387.73 84.89 C 388.928 86.72 389.854 88.714 390.48 90.81 C 391.181 93.192 391.518 95.667 391.48 98.15 C 391.534 102.017 390.756 105.85 389.2 109.39 C 387.74 112.652 385.63 115.581 383 118 C 380.315 120.423 377.183 122.298 373.78 123.52 C 370.091 124.861 366.195 125.538 362.27 125.52 C 355.99 125.569 349.779 124.201 344.1 121.52 C 338.359 118.759 333.301 114.76 329.29 109.81 L 338.57 100.61 Z  M 416.08 66.43 C 418.334 64.614 420.798 63.076 423.42 61.85 C 426.942 60.237 430.787 59.453 434.66 59.56 C 439.17 59.51 443.627 60.539 447.66 62.56 C 451.548 64.51 454.961 67.289 457.66 70.7 C 459.772 73.406 461.347 76.492 462.3 79.79 C 463.455 84.177 463.984 88.705 463.87 93.24 L 463.87 124.24 L 451.08 124.24 L 451.08 92.54 C 451.189 89.412 450.852 86.284 450.08 83.25 C 449.508 81.298 448.572 79.473 447.32 77.87 C 445.764 75.968 443.812 74.429 441.6 73.36 C 439.316 72.239 436.804 71.661 434.26 71.67 C 430.463 71.561 426.712 72.517 423.43 74.43 C 420.643 76.08 418.16 78.198 416.09 80.69 L 416.09 124.16 L 403.31 124.16 L 403.31 28.61 L 416.08 28.61 L 416.08 66.43 Z  M 473.67 92.54 C 473.629 88.066 474.472 83.628 476.15 79.48 C 477.725 75.572 480.052 72.011 483 69 C 485.952 66.016 489.475 63.659 493.36 62.07 C 501.707 58.74 511.013 58.74 519.36 62.07 C 523.25 63.659 526.781 66.016 529.74 69 C 532.691 72.018 535.021 75.585 536.6 79.5 C 539.92 87.911 539.92 97.269 536.6 105.68 C 535.01 109.568 532.681 113.11 529.74 116.11 C 526.783 119.077 523.26 121.42 519.38 123 C 511.033 126.33 501.727 126.33 493.38 123 C 489.488 121.424 485.956 119.073 483 116.09 C 480.056 113.091 477.723 109.549 476.13 105.66 C 474.449 101.493 473.613 97.033 473.67 92.54 L 473.67 92.54 Z  M 486.45 92.54 C 486.429 95.322 486.931 98.083 487.93 100.68 C 488.869 103.148 490.279 105.409 492.08 107.34 C 493.84 109.229 495.967 110.74 498.33 111.78 C 503.501 113.936 509.319 113.936 514.49 111.78 C 516.853 110.74 518.98 109.229 520.74 107.34 C 522.521 105.402 523.916 103.141 524.85 100.68 C 526.82 95.429 526.82 89.641 524.85 84.39 C 523.916 81.929 522.521 79.668 520.74 77.73 C 518.98 75.841 516.853 74.33 514.49 73.29 C 509.319 71.134 503.501 71.134 498.33 73.29 C 495.967 74.33 493.84 75.841 492.08 77.73 C 490.309 79.671 488.925 81.931 488 84.39 C 486.993 86.989 486.477 89.753 486.48 92.54 L 486.45 92.54 Z  M 596.88 60.91 L 614.24 104.11 L 631.6 60.91 L 644.79 60.91 L 619.08 124.16 L 610.2 124.16 L 592.44 79.75 L 574.67 124.16 L 565.79 124.16 L 540.08 60.91 L 553.27 60.91 L 570.63 104.11 L 588 60.91 L 596.88 60.91 Z  M 667.08 156.46 L 654.28 156.46 L 654.28 60.91 L 666.66 60.91 L 666.66 66.7 C 669.377 64.274 672.553 62.418 676 61.24 C 679.363 60.119 682.885 59.552 686.43 59.56 C 689.249 59.543 692.058 59.906 694.78 60.64 C 697.277 61.326 699.674 62.334 701.91 63.64 C 712.068 69.687 718.306 80.623 718.339 92.445 C 718.371 104.266 712.195 115.237 702.07 121.34 C 699.743 122.656 697.256 123.664 694.67 124.34 C 691.907 125.098 689.055 125.481 686.19 125.48 C 679.19 125.651 672.377 123.217 667.07 118.65 L 667.08 156.46 Z  M 667.08 104.38 C 669.171 107.171 671.882 109.437 675 111 C 680.565 113.893 687.134 114.139 692.9 111.67 C 695.384 110.598 697.646 109.072 699.57 107.17 C 701.452 105.283 702.938 103.039 703.94 100.57 C 704.983 98.008 705.51 95.266 705.49 92.5 C 705.5 87.106 703.508 81.9 699.9 77.89 C 698.112 75.938 695.935 74.382 693.51 73.32 C 690.881 72.173 688.038 71.597 685.17 71.63 C 681.521 71.578 677.919 72.463 674.71 74.2 C 671.75 75.794 669.16 77.995 667.11 80.66 L 667.08 104.38 Z  M 778.86 118.38 C 776.268 120.703 773.253 122.506 769.98 123.69 C 766.571 124.917 762.973 125.533 759.35 125.51 C 756.485 125.511 753.633 125.128 750.87 124.37 C 748.284 123.694 745.797 122.686 743.47 121.37 C 738.626 118.506 734.595 114.451 731.76 109.59 C 725.803 98.991 725.826 86.048 731.82 75.47 C 734.684 70.592 738.736 66.518 743.6 63.63 C 745.836 62.324 748.233 61.316 750.73 60.63 C 753.453 59.9 756.261 59.54 759.08 59.56 C 762.625 59.552 766.147 60.119 769.51 61.24 C 772.96 62.417 776.14 64.273 778.86 66.7 L 778.86 60.91 L 791.24 60.91 L 791.24 124.16 L 778.86 124.16 L 778.86 118.38 Z  M 778.46 80.69 C 776.406 78.025 773.813 75.824 770.85 74.23 C 767.649 72.5 764.058 71.619 760.42 71.67 C 757.552 71.637 754.709 72.213 752.08 73.36 C 749.651 74.415 747.473 75.972 745.69 77.93 C 742.069 81.933 740.069 87.142 740.08 92.54 C 740.06 95.306 740.587 98.048 741.63 100.61 C 742.632 103.079 744.118 105.323 746 107.21 C 747.92 109.112 750.179 110.638 752.66 111.71 C 758.427 114.17 764.993 113.924 770.56 111.04 C 773.669 109.462 776.367 107.182 778.44 104.38 L 778.46 80.69 Z  M 853.46 118.38 C 850.868 120.703 847.853 122.506 844.58 123.69 C 841.168 124.917 837.566 125.534 833.94 125.51 C 831.078 125.512 828.229 125.128 825.47 124.37 C 822.881 123.694 820.39 122.686 818.06 121.37 C 813.223 118.501 809.196 114.447 806.36 109.59 C 800.403 98.991 800.426 86.048 806.42 75.47 C 809.284 70.592 813.336 66.518 818.2 63.63 C 820.436 62.324 822.833 61.316 825.33 60.63 C 831.402 59.011 837.816 59.219 843.77 61.23 C 847.152 62.391 850.298 64.149 853.06 66.42 L 853.06 28.61 L 865.84 28.61 L 865.84 124.16 L 853.46 124.16 L 853.46 118.38 Z  M 853.06 80.69 C 851.006 78.025 848.413 75.824 845.45 74.23 C 842.243 72.497 838.645 71.615 835 71.67 C 832.132 71.637 829.289 72.213 826.66 73.36 C 824.231 74.42 822.051 75.977 820.26 77.93 C 816.659 81.943 814.671 87.148 814.68 92.54 C 814.66 95.306 815.187 98.048 816.23 100.61 C 817.232 103.079 818.718 105.323 820.6 107.21 C 822.52 109.112 824.779 110.638 827.26 111.71 C 833.027 114.17 839.593 113.924 845.16 111.04 C 848.269 109.462 850.967 107.182 853.04 104.38 L 853.06 80.69 Z " fill="rgb(45,46,131)"/></g><path d=" M 271.31 76.06 C 271.31 75.06 271.31 73.97 271.23 72.93 L 271.23 72.45 C 271.18 71.56 271.11 70.66 271.02 69.77 L 271.02 69.66 C 267.957 40.554 244.956 17.553 215.85 14.49 L 215.73 14.49 C 214.85 14.4 213.95 14.33 213.05 14.28 L 212.58 14.28 C 211.58 14.28 210.49 14.2 209.45 14.2 C 193.017 14.16 177.25 20.691 165.66 32.34 L 144.66 53.24 L 159.96 68.53 L 175.17 53.3 L 175.08 53.24 L 180.8 47.52 C 188.364 39.918 198.656 35.661 209.38 35.7 L 211.69 35.7 C 212.275 35.716 212.859 35.763 213.44 35.84 L 213.52 35.84 C 232.512 37.84 247.52 52.848 249.52 71.84 L 249.52 72 C 249.58 72.58 249.62 73.16 249.66 73.74 L 249.66 74 C 249.66 74.67 249.71 75.35 249.71 76 C 249.71 76.69 249.71 77.37 249.66 78.06 L 249.66 78.33 C 249.66 78.93 249.58 79.52 249.52 80.12 C 248.065 93.964 239.597 106.088 227.1 112.22 L 226.71 112.41 C 226.34 112.59 225.97 112.75 225.59 112.92 L 224.78 113.27 L 224.06 113.56 L 222.8 114.03 L 222.51 114.13 C 207.906 119.154 191.716 115.425 180.78 104.52 L 175.13 98.87 L 137 60.86 L 76.16 0 L 60.93 15.24 L 0 76.16 L 15.23 91.39 L 76.16 152.32 L 91.39 137.09 L 129.47 99 L 114.24 83.77 L 76.16 121.85 L 30.47 76.16 L 76.16 30.46 L 99 53.31 L 159.93 114.24 L 165.58 119.89 C 177.19 131.513 192.952 138.03 209.38 138 C 216.239 138.003 223.05 136.857 229.53 134.61 L 230.04 134.44 C 230.67 134.22 231.29 133.98 231.91 133.74 L 233.07 133.28 L 234.26 132.76 C 234.86 132.5 235.45 132.24 236.04 131.96 L 236.56 131.7 C 255.779 122.337 268.801 103.715 271 82.45 L 271 82.38 Q 271.13 81.03 271.21 79.65 L 271.21 79.22 C 271.26 78.22 271.29 77.12 271.29 76.07 L 271.31 76.06 Z " fill="rgb(45,46,131)"/></g></svg>