<svg xmlns="http://www.w3.org/2000/svg" width="17" height="14" viewBox="0 0 17 14"><path fill="#FFF" fill-rule="evenodd" d="M10.34.161C8.85.704 7.909 2.103 8.016 3.634l.035.59-.596-.072c-2.17-.277-4.067-1.217-5.677-2.797L.989.57l-.202.579c-.429 1.29-.154 2.653.74 3.57.477.506.37.578-.453.277-.286-.096-.537-.169-.56-.132-.084.084.202 1.181.43 1.616.31.604.941 1.194 1.633 1.544l.585.278-.693.01c-.667 0-.692.012-.62.266.239.784 1.181 1.617 2.231 1.978l.74.254-.644.386a6.677 6.677 0 0 1-3.197.891c-.537.013-.979.06-.979.097 0 .12 1.456.795 2.302 1.061 2.54.784 5.558.445 7.824-.892 1.61-.953 3.22-2.847 3.972-4.68.406-.976.811-2.761.811-3.617 0-.555.036-.627.703-1.29.394-.386.763-.808.836-.928.12-.23.106-.23-.501-.025-1.014.362-1.157.314-.655-.228.369-.387.81-1.086.81-1.29 0-.036-.179.024-.381.132-.215.12-.692.302-1.05.41l-.644.205-.584-.4c-.323-.216-.775-.458-1.014-.53-.609-.169-1.539-.145-2.088.048z"/></svg>